<svg preserveAspectRatio="xMidYMid meet" data-bbox="14.5 42 171.001 116" viewBox="14.5 42 171.0010223388672 116" height="200" width="200" xmlns="http://www.w3.org/2000/svg" data-type="color" role="img" style="">
    <g>
        <path d="M169.6 42H30.5c-8.8 0-16 7.4-16 16.6v82.8c0 9.2 7.2 16.6 16 16.6h139c8.9 0 16-7.4 16-16.6V58.6c.1-9.2-7.1-16.6-15.9-16.6zM35.9 53.1h128.3c1.5 0 3 .3 4.3.9l-64 58.9c-1 .8-2.6 1.4-4 1.4s-2.9-.5-4.1-1.5l-63-59.3c.8-.3 1.6-.4 2.5-.4zm-10.7 11c0-1.1.2-2.1.5-3.2l42.1 39.6-42 38.6c-.3-1-.5-2.1-.5-3.2l-.1-71.8zm139 82.8H35.9c-.8 0-1.5-.1-2.2-.3l42-38.6 13.7 12.9c6.6 5.4 15.6 5.2 21.8.3l13.7-12.5 41.5 38.1c-.7 0-1.4.1-2.2.1zm10.7-11c0 1.1-.2 2.1-.5 3.2l-41.3-37.9 41.7-38.3c.1.4.1.9.1 1.3v71.7z" fill="#f0e128" data-color="1"></path>
    </g>
</svg>